<svg xmlns="http://www.w3.org/2000/svg" viewBox="0 0 480 360">
  <rect width="480" height="360" rx="20" fill="#f1f5f9"/>
  <g font-family="Inter,Arial" font-size="13" font-weight="700">
    <circle cx="240" cy="70" r="30" fill="#3e5166"/>
    <text x="240" y="75" text-anchor="middle" fill="#fff">TX</text>
    <circle cx="90" cy="250" r="30" fill="#fff" stroke="#3e5166" stroke-width="3"/>
    <text x="90" y="255" text-anchor="middle" fill="#3e5166">A</text>
    <circle cx="240" cy="270" r="30" fill="#fff" stroke="#3e5166" stroke-width="3"/>
    <text x="240" y="275" text-anchor="middle" fill="#3e5166">B</text>
    <circle cx="390" cy="250" r="30" fill="#fff" stroke="#3e5166" stroke-width="3"/>
    <text x="390" y="255" text-anchor="middle" fill="#3e5166">C</text>
    <circle cx="160" cy="160" r="22" fill="#34d399"/>
    <text x="160" y="165" text-anchor="middle" fill="#06302a" font-size="11">Full</text>
    <circle cx="330" cy="160" r="22" fill="#34d399"/>
    <text x="330" y="165" text-anchor="middle" fill="#06302a" font-size="11">SPV</text>
  </g>
  <g stroke="#3e5166" stroke-width="2.5" stroke-dasharray="6 6" opacity="0.8">
    <line x1="240" y1="100" x2="160" y2="140"/><line x1="240" y1="100" x2="330" y2="140"/>
    <line x1="160" y1="182" x2="90" y2="222"/><line x1="160" y1="182" x2="240" y2="242"/>
    <line x1="330" y1="182" x2="240" y2="242"/><line x1="330" y1="182" x2="390" y2="222"/>
    <line x1="90" y1="250" x2="240" y2="270"/><line x1="240" y1="270" x2="390" y2="250"/>
  </g>
</svg>
